<svg width="680" height="555" viewBox="0 0 680 555" xmlns="http://www.w3.org/2000/svg" style="font-family: -apple-system, BlinkMacSystemFont, 'Segoe UI', Helvetica, Arial, sans-serif; background: #ffffff;">
<defs><marker id="a" viewBox="0 0 10 10" refX="8" refY="5" markerWidth="6" markerHeight="6" orient="auto-start-reverse"><path d="M2 1L8 5L2 9" fill="none" stroke="#888780" stroke-width="1.5" stroke-linecap="round" stroke-linejoin="round"/></marker><marker id="ad" viewBox="0 0 10 10" refX="8" refY="5" markerWidth="6" markerHeight="6" orient="auto-start-reverse"><path d="M2 1L8 5L2 9" fill="none" stroke="#B4B2A9" stroke-width="1.5" stroke-linecap="round" stroke-linejoin="round"/></marker></defs>

<!-- Clients -->
<rect x="90" y="16" width="150" height="42" rx="8" fill="#EEEDFE" stroke="#534AB7" stroke-width="0.5"/>
<text x="165" y="37" text-anchor="middle" dominant-baseline="central" font-size="14" font-weight="500" fill="#3C3489">AI agent</text>

<rect x="400" y="16" width="185" height="42" rx="8" fill="#EEEDFE" stroke="#534AB7" stroke-width="0.5"/>
<text x="492" y="37" text-anchor="middle" dominant-baseline="central" font-size="14" font-weight="500" fill="#3C3489">Operator dashboard</text>

<!-- Arrows to API -->
<line x1="165" y1="58" x2="165" y2="86" stroke="#888780" stroke-width="1.5" marker-end="url(#a)"/>
<text x="173" y="76" font-size="12" fill="#5F5E5A">POST /traces</text>
<line x1="492" y1="58" x2="492" y2="86" stroke="#888780" stroke-width="1.5" marker-end="url(#a)"/>
<text x="500" y="76" font-size="12" fill="#5F5E5A">REST + polling</text>

<!-- API Layer -->
<rect x="40" y="88" width="600" height="52" rx="10" fill="#E1F5EE" fill-opacity="0.5" stroke="#0F6E56" stroke-width="0.5"/>
<text x="340" y="107" text-anchor="middle" dominant-baseline="central" font-size="14" font-weight="500" fill="#085041">Spring Boot API :8080</text>
<text x="340" y="125" text-anchor="middle" dominant-baseline="central" font-size="12" fill="#0F6E56">API key auth · INGEST | OPERATOR scopes</text>

<line x1="340" y1="140" x2="340" y2="162" stroke="#888780" stroke-width="1.5" marker-end="url(#a)"/>

<!-- Core Services -->
<rect x="40" y="164" width="140" height="52" rx="8" fill="#E6F1FB" stroke="#185FA5" stroke-width="0.5"/>
<text x="110" y="183" text-anchor="middle" dominant-baseline="central" font-size="14" font-weight="500" fill="#0C447C">Trace service</text>
<text x="110" y="200" text-anchor="middle" dominant-baseline="central" font-size="12" fill="#185FA5">Lifecycle mgmt</text>

<rect x="195" y="164" width="140" height="52" rx="8" fill="#E6F1FB" stroke="#185FA5" stroke-width="0.5"/>
<text x="265" y="183" text-anchor="middle" dominant-baseline="central" font-size="14" font-weight="500" fill="#0C447C">Policy engine</text>
<text x="265" y="200" text-anchor="middle" dominant-baseline="central" font-size="12" fill="#185FA5">6 evaluators</text>

<rect x="350" y="164" width="130" height="52" rx="8" fill="#E6F1FB" stroke="#185FA5" stroke-width="0.5"/>
<text x="415" y="183" text-anchor="middle" dominant-baseline="central" font-size="14" font-weight="500" fill="#0C447C">Analytics</text>
<text x="415" y="200" text-anchor="middle" dominant-baseline="central" font-size="12" fill="#185FA5">Aggregations</text>

<rect x="495" y="164" width="145" height="52" rx="8" fill="#E6F1FB" stroke="#185FA5" stroke-width="0.5"/>
<text x="567" y="183" text-anchor="middle" dominant-baseline="central" font-size="14" font-weight="500" fill="#0C447C">Audit service</text>
<text x="567" y="200" text-anchor="middle" dominant-baseline="central" font-size="12" fill="#185FA5">Immutable log</text>

<!-- Policy engine to evaluators -->
<line x1="265" y1="216" x2="230" y2="260" stroke="#888780" stroke-width="1.5" marker-end="url(#a)"/>

<!-- Evaluators label -->
<text x="255" y="253" text-anchor="middle" font-size="14" font-weight="500" fill="#712B13">Policy evaluators</text>

<!-- Evaluator pills (start at x=160, leaving x<160 clear for arrows) -->
<rect x="160" y="268" width="70" height="24" rx="6" fill="#FAECE7" stroke="#993C1D" stroke-width="0.5"/>
<text x="195" y="283" text-anchor="middle" dominant-baseline="central" font-size="12" fill="#712B13">Token</text>

<rect x="238" y="268" width="56" height="24" rx="6" fill="#FAECE7" stroke="#993C1D" stroke-width="0.5"/>
<text x="266" y="283" text-anchor="middle" dominant-baseline="central" font-size="12" fill="#712B13">Cost</text>

<rect x="302" y="268" width="60" height="24" rx="6" fill="#FAECE7" stroke="#993C1D" stroke-width="0.5"/>
<text x="332" y="283" text-anchor="middle" dominant-baseline="central" font-size="12" fill="#712B13">Tools</text>

<rect x="370" y="268" width="56" height="24" rx="6" fill="#FAECE7" stroke="#993C1D" stroke-width="0.5"/>
<text x="398" y="283" text-anchor="middle" dominant-baseline="central" font-size="12" fill="#712B13">Rate</text>

<rect x="160" y="298" width="50" height="24" rx="6" fill="#FAECE7" stroke="#993C1D" stroke-width="0.5"/>
<text x="185" y="313" text-anchor="middle" dominant-baseline="central" font-size="12" fill="#712B13">PII</text>

<rect x="218" y="298" width="80" height="24" rx="6" fill="#FAECE7" stroke="#993C1D" stroke-width="0.5"/>
<text x="258" y="313" text-anchor="middle" dominant-baseline="central" font-size="12" fill="#712B13">Approval</text>

<!-- Redis -->
<rect x="465" y="268" width="130" height="48" rx="8" fill="#FAEEDA" stroke="#854F0B" stroke-width="0.5"/>
<text x="530" y="285" text-anchor="middle" dominant-baseline="central" font-size="14" font-weight="500" fill="#633806">Redis</text>
<text x="530" y="303" text-anchor="middle" dominant-baseline="central" font-size="12" fill="#854F0B">Rate limiting</text>

<!-- Rate to Redis arrow -->
<line x1="426" y1="280" x2="463" y2="287" stroke="#888780" stroke-width="1.5" marker-end="url(#a)"/>

<!-- Trace service to PostgreSQL (x=80, clear of evaluator pills at x>=160) -->
<path d="M80 216 L80 370" fill="none" stroke="#888780" stroke-width="1.5" marker-end="url(#a)"/>
<text x="68" y="300" text-anchor="end" font-size="12" fill="#5F5E5A">writes</text>

<!-- Trace service to Kafka (x=130, clear of pills at x>=160, horizontal at y=340 in gap) -->
<path d="M130 216 L130 340 L310 340 L310 370" fill="none" stroke="#888780" stroke-width="1.5" marker-end="url(#a)"/>
<text x="220" y="335" text-anchor="middle" font-size="12" fill="#5F5E5A">publishes</text>

<!-- Infrastructure -->
<rect x="40" y="372" width="155" height="48" rx="8" fill="#EAF3DE" stroke="#3B6D11" stroke-width="0.5"/>
<text x="117" y="389" text-anchor="middle" dominant-baseline="central" font-size="14" font-weight="500" fill="#27500A">PostgreSQL</text>
<text x="117" y="407" text-anchor="middle" dominant-baseline="central" font-size="12" fill="#3B6D11">Traces · policies</text>

<rect x="235" y="372" width="150" height="48" rx="8" fill="#E6F1FB" stroke="#185FA5" stroke-width="0.5"/>
<text x="310" y="389" text-anchor="middle" dominant-baseline="central" font-size="14" font-weight="500" fill="#0C447C">Kafka</text>
<text x="310" y="407" text-anchor="middle" dominant-baseline="central" font-size="12" fill="#185FA5">3 topics streaming</text>

<rect x="465" y="372" width="155" height="48" rx="8" fill="#FAEEDA" stroke="#854F0B" stroke-width="0.5"/>
<text x="542" y="389" text-anchor="middle" dominant-baseline="central" font-size="14" font-weight="500" fill="#633806">Jaeger</text>
<text x="542" y="407" text-anchor="middle" dominant-baseline="central" font-size="12" fill="#854F0B">Tracing · spans</text>

<!-- Audit service to Jaeger (dashed, routed right of Redis at x=620) -->
<path d="M620 216 L620 350 L542 350 L542 370" fill="none" stroke="#B4B2A9" stroke-width="1" stroke-dasharray="4 3" marker-end="url(#ad)"/>
<text x="628" y="300" font-size="12" fill="#888780">OTLP</text>

<!-- Kafka to Audit Consumer -->
<line x1="310" y1="420" x2="310" y2="452" stroke="#888780" stroke-width="1.5" marker-end="url(#a)"/>

<!-- Audit Consumer -->
<rect x="235" y="454" width="150" height="38" rx="8" fill="#F1EFE8" stroke="#5F5E5A" stroke-width="0.5"/>
<text x="310" y="473" text-anchor="middle" dominant-baseline="central" font-size="14" font-weight="500" fill="#444441">Audit consumer</text>

<!-- Audit Consumer to PostgreSQL -->
<path d="M235 473 L195 440 L155 420" fill="none" stroke="#888780" stroke-width="1.5" marker-end="url(#a)"/>
</svg>